<svg xmlns="http://www.w3.org/2000/svg" width="1120" height="470" viewBox="0 0 1120 470">
<rect width="100%" height="100%" fill="white"/>
<style>text{font-family:Arial,Helvetica,sans-serif;fill:#111827}.title{font-size:18px;font-weight:700}.panel{font-size:15px;font-weight:700}.tick{font-size:11px;fill:#475569}.label{font-size:12px}.note{font-size:11px;fill:#475569}.value{font-size:11px;font-weight:700}</style>
<text x="560" y="27" text-anchor="middle" class="title">Small public gains and new readouts did not establish transfer</text>
<text x="70" y="58" class="panel">A. Grouped public validation</text>
<line x1="70" y1="380.0" x2="570" y2="380.0" stroke="#e2e8f0"/>
<text x="60" y="384.0" text-anchor="end" class="tick">0.55</text>
<line x1="70" y1="308.6" x2="570" y2="308.6" stroke="#e2e8f0"/>
<text x="60" y="312.6" text-anchor="end" class="tick">0.60</text>
<line x1="70" y1="237.1" x2="570" y2="237.1" stroke="#e2e8f0"/>
<text x="60" y="241.1" text-anchor="end" class="tick">0.65</text>
<line x1="70" y1="165.7" x2="570" y2="165.7" stroke="#e2e8f0"/>
<text x="60" y="169.7" text-anchor="end" class="tick">0.70</text>
<line x1="70" y1="94.3" x2="570" y2="94.3" stroke="#e2e8f0"/>
<text x="60" y="98.3" text-anchor="end" class="tick">0.75</text>
<line x1="70" y1="80" x2="70" y2="380" stroke="#64748b"/>
<line x1="70" y1="380" x2="570" y2="380" stroke="#64748b"/>
<text x="18" y="230.0" transform="rotate(-90 18 230.0)" text-anchor="middle" class="label">Balanced accuracy</text>
<rect x="76.7" y="158.9" width="58" height="221.1" fill="#2563eb"/>
<line x1="105.7" y1="158.9" x2="105.7" y2="284.4" stroke="#111827" stroke-width="1.5"/>
<line x1="98.7" y1="284.4" x2="112.7" y2="284.4" stroke="#111827" stroke-width="1.5"/>
<text x="105.7" y="151.9" text-anchor="middle" class="value">0.705</text>
<text x="105.7" y="399" text-anchor="middle" class="label">V6</text>
<rect x="148.1" y="146.1" width="58" height="233.9" fill="#94a3b8"/>
<line x1="177.1" y1="146.1" x2="177.1" y2="264.6" stroke="#111827" stroke-width="1.5"/>
<line x1="170.1" y1="264.6" x2="184.1" y2="264.6" stroke="#111827" stroke-width="1.5"/>
<text x="177.1" y="139.1" text-anchor="middle" class="value">0.714</text>
<text x="177.1" y="399" text-anchor="middle" class="label">E6</text>
<rect x="219.6" y="139.1" width="58" height="240.9" fill="#94a3b8"/>
<line x1="248.6" y1="139.1" x2="248.6" y2="252.8" stroke="#111827" stroke-width="1.5"/>
<line x1="241.6" y1="252.8" x2="255.6" y2="252.8" stroke="#111827" stroke-width="1.5"/>
<text x="248.6" y="132.1" text-anchor="middle" class="value">0.719</text>
<text x="248.6" y="399" text-anchor="middle" class="label">E7</text>
<rect x="291.0" y="173.1" width="58" height="206.9" fill="#94a3b8"/>
<line x1="320.0" y1="173.1" x2="320.0" y2="294.2" stroke="#111827" stroke-width="1.5"/>
<line x1="313.0" y1="294.2" x2="327.0" y2="294.2" stroke="#111827" stroke-width="1.5"/>
<text x="320.0" y="166.1" text-anchor="middle" class="value">0.695</text>
<text x="320.0" y="399" text-anchor="middle" class="label">E8</text>
<rect x="362.4" y="147.7" width="58" height="232.3" fill="#94a3b8"/>
<line x1="391.4" y1="147.7" x2="391.4" y2="275.2" stroke="#111827" stroke-width="1.5"/>
<line x1="384.4" y1="275.2" x2="398.4" y2="275.2" stroke="#111827" stroke-width="1.5"/>
<text x="391.4" y="140.7" text-anchor="middle" class="value">0.713</text>
<text x="391.4" y="399" text-anchor="middle" class="label">E9</text>
<rect x="433.9" y="269.5" width="58" height="110.5" fill="#94a3b8"/>
<line x1="462.9" y1="269.5" x2="462.9" y2="402.3" stroke="#111827" stroke-width="1.5"/>
<line x1="455.9" y1="402.3" x2="469.9" y2="402.3" stroke="#111827" stroke-width="1.5"/>
<text x="462.9" y="262.5" text-anchor="middle" class="value">0.627</text>
<text x="462.9" y="399" text-anchor="middle" class="label">E11a</text>
<rect x="505.3" y="256.7" width="58" height="123.3" fill="#94a3b8"/>
<line x1="534.3" y1="256.7" x2="534.3" y2="392.9" stroke="#111827" stroke-width="1.5"/>
<line x1="527.3" y1="392.9" x2="541.3" y2="392.9" stroke="#111827" stroke-width="1.5"/>
<text x="534.3" y="249.7" text-anchor="middle" class="value">0.636</text>
<text x="534.3" y="399" text-anchor="middle" class="label">E12</text>
<line x1="70" y1="158.9" x2="570" y2="158.9" stroke="#2563eb" stroke-dasharray="6 4"/>
<text x="566" y="154.9" text-anchor="end" class="note" fill="#2563eb">V6</text>
<line x1="70" y1="130.3" x2="570" y2="130.3" stroke="#dc2626" stroke-dasharray="2 4"/>
<text x="566" y="126.3" text-anchor="end" class="note" fill="#dc2626">promotion gate</text>
<text x="75" y="430" class="note">Vertical marks end at one-sided 95% bootstrap lower bounds.</text>
<text x="670" y="58" class="panel">B. Independent OOD audit (n=10)</text>
<line x1="670" y1="380.0" x2="1050" y2="380.0" stroke="#e2e8f0"/>
<text x="660" y="384.0" text-anchor="end" class="tick">0.0</text>
<line x1="670" y1="320.0" x2="1050" y2="320.0" stroke="#e2e8f0"/>
<text x="660" y="324.0" text-anchor="end" class="tick">0.2</text>
<line x1="670" y1="260.0" x2="1050" y2="260.0" stroke="#e2e8f0"/>
<text x="660" y="264.0" text-anchor="end" class="tick">0.4</text>
<line x1="670" y1="200.0" x2="1050" y2="200.0" stroke="#e2e8f0"/>
<text x="660" y="204.0" text-anchor="end" class="tick">0.6</text>
<line x1="670" y1="140.0" x2="1050" y2="140.0" stroke="#e2e8f0"/>
<text x="660" y="144.0" text-anchor="end" class="tick">0.8</text>
<line x1="670" y1="80.0" x2="1050" y2="80.0" stroke="#e2e8f0"/>
<text x="660" y="84.0" text-anchor="end" class="tick">1.0</text>
<line x1="670" y1="80" x2="670" y2="380" stroke="#64748b"/>
<line x1="670" y1="380" x2="1050" y2="380" stroke="#64748b"/>
<text x="620" y="230.0" transform="rotate(-90 620 230.0)" text-anchor="middle" class="label">Accuracy</text>
<rect x="743" y="320.0" width="84" height="60.0" fill="#2563eb"/>
<text x="785" y="312.0" text-anchor="middle" class="value">0.20</text>
<text x="785" y="399" text-anchor="middle" class="label">Frozen V6</text>
<rect x="908" y="140.0" width="84" height="240.0" fill="#f59e0b"/>
<text x="950" y="132.0" text-anchor="middle" class="value">0.80</text>
<text x="950" y="399" text-anchor="middle" class="label">Always negative</text>
<line x1="785" y1="227.0" x2="785" y2="363.0" stroke="#111827" stroke-width="1.5"/>
<line x1="778" y1="227.0" x2="792" y2="227.0" stroke="#111827" stroke-width="1.5"/>
<line x1="778" y1="363.0" x2="792" y2="363.0" stroke="#111827" stroke-width="1.5"/>
<text x="860.0" y="96" text-anchor="middle" class="note" fill="#991b1b">V6 predicted all 10 cases robust</text>
</svg>
